<svg width="19" height="19" viewBox="0 0 19 19" fill="none" xmlns="http://www.w3.org/2000/svg">
<g id="FunnelSimple">
<path id="Vector (Stroke)" fill-rule="evenodd" clip-rule="evenodd" d="M4.15625 9.5C4.15625 9.17208 4.42208 8.90625 4.75 8.90625H14.25C14.5779 8.90625 14.8438 9.17208 14.8438 9.5C14.8438 9.82792 14.5779 10.0938 14.25 10.0938H4.75C4.42208 10.0938 4.15625 9.82792 4.15625 9.5Z" fill="#130F26"/>
<path id="Vector (Stroke)_2" fill-rule="evenodd" clip-rule="evenodd" d="M1.1875 5.9375C1.1875 5.60958 1.45333 5.34375 1.78125 5.34375H17.2188C17.5467 5.34375 17.8125 5.60958 17.8125 5.9375C17.8125 6.26542 17.5467 6.53125 17.2188 6.53125H1.78125C1.45333 6.53125 1.1875 6.26542 1.1875 5.9375Z" fill="#130F26"/>
<path id="Vector (Stroke)_3" fill-rule="evenodd" clip-rule="evenodd" d="M7.125 13.0625C7.125 12.7346 7.39083 12.4688 7.71875 12.4688H11.2812C11.6092 12.4688 11.875 12.7346 11.875 13.0625C11.875 13.3904 11.6092 13.6562 11.2812 13.6562H7.71875C7.39083 13.6562 7.125 13.3904 7.125 13.0625Z" fill="#130F26"/>
</g>
</svg>
